{"glyphs":{" ":{"ha":0,"x_min":0,"x_max":0,"o":""},"A":{"ha":1797,"x_min":0,"x_max":0,"o":"m 1597 950 b 1658 889 1632 950 1658 924 l 1658 -199 b 1597 -260 1658 -232 1632 -260 l 1276 -260 b 1215 -199 1242 -260 1215 -232 l 1215 889 b 1276 950 1215 924 1242 950 m 1593 885 l 1281 885 l 1281 -193 l 1593 -193 m 522 558 b 583 497 557 558 583 532 l 583 -199 b 522 -260 583 -232 557 -260 l 201 -260 b 139 -199 167 -260 139 -232 l 139 497 b 201 558 139 532 167 558 m 518 493 l 206 493 l 206 -193 l 518 -193 m 1058 324 b 1119 263 1092 324 1119 296 l 1119 -199 b 1058 -260 1119 -232 1092 -260 l 736 -260 b 675 -199 703 -260 675 -232 l 675 263 b 736 324 675 296 703 324 m 1054 257 l 742 257 l 742 -193 l 1054 -193 "},"B":{"ha":1510,"x_min":0,"x_max":0,"o":"m 754 963 b 1371 347 1088 971 1378 679 b 1289 39 1371 236 1343 133 b 1064 -187 1233 -57 1158 -132 b 754 -269 968 -242 865 -269 b 446 -187 643 -269 540 -242 b 221 38 350 -132 275 -57 b 139 347 167 132 139 235 b 319 783 139 518 199 663 b 754 963 439 903 583 963 m 754 896 b 367 736 603 896 474 843 b 206 347 260 629 206 499 b 367 -42 206 196 260 65 b 754 -203 474 -149 603 -203 b 1143 -42 906 -203 1036 -149 b 1304 347 1250 65 1304 196 b 1143 736 1304 499 1250 629 b 754 896 1036 843 906 896 m 722 65 b 740 47 722 53 728 47 l 769 47 b 788 65 782 47 788 53 l 788 524 l 940 371 b 967 371 949 363 957 363 l 988 392 b 988 417 997 401 997 410 l 785 621 b 725 621 768 638 742 638 l 522 417 b 522 392 513 410 513 401 l 543 371 b 568 371 551 363 560 363 l 722 524 "},"C":{"ha":1510,"x_min":0,"x_max":0,"o":"m 1289 39 b 1064 -187 1233 -57 1158 -132 b 754 -269 968 -242 865 -269 b 446 -187 643 -269 540 -242 b 221 38 350 -132 275 -57 b 139 347 167 132 139 235 b 319 783 139 518 199 663 b 754 963 439 903 583 963 b 1064 881 867 963 969 935 b 1289 657 1158 826 1233 751 b 1371 347 1343 561 1371 458 b 1289 39 1371 236 1343 133 m 1143 736 b 754 896 1036 843 906 896 b 367 736 603 896 474 843 b 206 347 260 629 206 499 b 367 -42 206 196 260 65 b 754 -203 474 -149 603 -203 b 1143 -42 906 -203 1036 -149 b 1304 347 1250 65 1304 196 b 1143 736 1304 499 1250 629 m 474 379 b 456 361 461 379 456 374 l 456 332 b 474 314 456 319 461 314 l 932 314 l 778 161 b 778 135 771 151 771 143 l 800 114 b 825 114 808 106 817 106 l 1029 318 b 1029 376 1044 333 1044 360 l 825 579 b 800 579 817 588 808 588 l 778 558 b 778 533 771 550 771 542 l 932 379 "},"D":{"ha":1510,"x_min":0,"x_max":0,"o":"m 222 39 b 139 347 167 133 139 236 b 222 657 139 458 167 561 b 446 881 276 751 351 826 b 756 963 540 935 643 963 b 1190 783 925 963 1069 903 b 1371 347 1311 663 1371 518 b 1190 -89 1371 176 1311 32 b 756 -269 1069 -210 925 -269 b 447 -187 644 -269 542 -242 b 222 39 351 -132 276 -57 m 367 736 b 206 347 260 629 206 499 b 367 -42 206 196 260 65 b 756 -203 474 -149 604 -203 b 1144 -42 907 -203 1038 -149 b 1304 347 1251 65 1304 196 b 1144 736 1304 499 1251 629 b 756 896 1038 843 907 896 b 367 736 604 896 474 843 m 578 379 l 731 533 b 731 558 739 542 739 550 l 710 579 b 685 579 701 588 693 588 l 481 376 b 481 318 465 360 465 333 l 685 114 b 710 114 693 106 701 106 l 731 135 b 731 161 740 143 740 151 l 578 314 l 1036 314 b 1054 332 1049 314 1054 319 l 1054 361 b 1036 379 1054 374 1049 379 "},"E":{"ha":1510,"x_min":0,"x_max":0,"o":"m 754 -269 b 319 -89 585 -269 440 -210 b 139 347 199 32 139 176 b 319 783 139 518 199 663 b 754 963 440 903 585 963 b 1371 347 1088 971 1378 679 b 754 -269 1379 15 1086 -278 m 367 -42 b 754 -203 474 -149 603 -203 b 1143 -42 906 -203 1036 -149 b 1304 347 1250 65 1304 196 b 1143 736 1304 499 1250 629 b 754 896 1036 843 906 896 b 367 736 603 896 474 843 b 206 347 260 629 206 499 b 367 -42 206 196 260 65 m 722 169 l 568 324 b 543 324 561 331 553 331 l 522 301 b 522 276 514 293 514 285 l 725 72 b 785 72 742 57 768 57 l 988 276 b 988 301 996 285 996 293 l 967 324 b 940 324 957 331 949 331 l 788 169 l 788 628 b 769 646 788 640 782 646 l 740 646 b 722 628 728 646 722 640 "},"F":{"ha":1510,"x_min":0,"x_max":0,"o":"m 446 -187 b 221 38 350 -132 275 -57 b 139 347 167 132 139 235 b 319 783 139 518 199 663 b 754 963 439 903 583 963 b 1064 881 867 963 969 935 b 1289 657 1158 826 1233 751 b 1371 347 1343 561 1371 458 b 1289 39 1371 236 1343 133 b 1064 -187 1233 -57 1158 -132 b 754 -269 968 -242 865 -269 b 446 -187 643 -269 540 -242 m 1167 -18 b 1304 347 1258 88 1304 210 b 1143 736 1304 499 1250 629 b 754 896 1036 843 906 896 b 390 758 615 896 494 850 m 343 711 b 206 347 251 607 206 486 b 367 -42 206 196 260 65 b 754 -203 474 -149 603 -203 b 1119 -65 892 -203 1014 -157 "},"G":{"ha":1510,"x_min":0,"x_max":0,"o":"m 446 -187 b 221 38 350 -132 275 -57 b 139 347 167 132 139 235 b 319 783 139 518 199 663 b 754 963 439 903 583 963 b 1064 881 867 963 969 935 b 1289 657 1158 826 1233 751 b 1371 347 1343 561 1371 458 b 1289 39 1371 236 1343 133 b 1064 -187 1233 -57 1158 -132 b 754 -269 968 -242 865 -269 b 446 -187 643 -269 540 -242 m 1143 -42 b 1304 347 1250 65 1304 196 b 1143 736 1304 499 1250 629 b 754 896 1036 843 906 896 b 365 735 603 896 472 842 b 204 347 258 628 204 499 b 365 -42 204 196 258 65 b 754 -203 472 -149 603 -203 b 1143 -42 906 -203 1036 -149 m 1061 581 b 1036 579 1053 588 1044 588 l 681 185 l 490 378 b 464 378 482 388 474 388 l 443 357 b 443 332 435 349 435 340 l 661 110 b 701 111 672 99 692 99 l 1085 535 b 1083 560 1094 544 1093 553 "},"H":{"ha":1510,"x_min":0,"x_max":0,"o":"m 446 -187 b 221 38 350 -132 275 -57 b 139 347 167 132 139 235 b 319 783 139 518 199 663 b 754 963 439 903 583 963 b 1064 881 867 963 969 935 b 1289 657 1158 826 1233 751 b 1371 347 1343 561 1371 458 b 1289 39 1371 236 1343 133 b 1064 -187 1233 -57 1158 -132 b 754 -269 968 -242 865 -269 b 446 -187 643 -269 540 -242 m 1143 -42 b 1304 347 1250 65 1304 196 b 1143 736 1304 499 1250 629 b 754 896 1036 843 906 896 b 365 735 603 896 472 842 b 204 347 258 628 204 499 b 365 -42 204 196 258 65 b 754 -203 472 -149 603 -203 b 1143 -42 906 -203 1036 -149 m 450 96 b 450 69 440 88 440 79 l 471 49 b 496 49 478 39 486 39 l 783 325 b 792 344 789 331 792 338 l 792 619 b 774 638 792 632 786 638 l 744 638 b 726 619 732 638 726 632 l 726 361 l 450 96 "},"I":{"ha":1510,"x_min":0,"x_max":0,"o":"m 756 -269 b 139 347 424 -278 131 15 b 756 963 132 679 422 971 b 1190 783 925 963 1069 903 b 1371 347 1311 663 1371 518 b 1190 -89 1371 176 1311 32 b 756 -269 1069 -210 925 -269 m 1144 -42 b 1304 347 1251 65 1304 196 b 1144 736 1304 499 1251 629 b 756 896 1038 843 907 896 b 367 736 604 896 474 843 b 206 347 260 629 206 499 b 367 -42 206 196 260 65 b 756 -203 474 -149 604 -203 b 1144 -42 907 -203 1038 -149 m 989 160 b 989 133 999 151 999 143 l 968 113 b 943 113 958 103 950 103 l 756 300 l 568 113 b 542 113 560 104 551 104 l 521 133 b 521 160 513 143 513 151 l 708 347 l 521 535 b 521 560 513 543 513 551 l 542 581 b 568 581 551 590 560 590 l 756 393 l 943 581 b 968 581 950 590 958 590 l 989 560 b 989 535 997 551 997 543 l 801 347 "},"J":{"ha":1217,"x_min":0,"x_max":0,"o":"m 139 836 b 233 890 139 886 190 917 l 1011 400 l 1011 871 b 1029 889 1011 883 1017 889 l 1060 889 b 1078 871 1072 889 1078 883 l 1078 -176 b 1060 -194 1078 -189 1072 -194 l 1029 -194 b 1011 -176 1017 -194 1011 -189 l 1011 294 l 233 -196 b 139 -142 190 -222 139 -192 m 206 829 l 206 -135 l 971 347 "},"K":{"ha":1543,"x_min":0,"x_max":0,"o":"m 640 149 l 232 -108 b 139 -57 192 -132 139 -106 l 139 751 b 232 803 139 800 192 826 l 640 546 l 640 751 b 735 803 640 800 692 826 l 1376 399 b 1376 296 1414 375 1414 319 l 735 -108 b 640 -57 692 -132 640 -106 m 707 -47 l 1335 347 l 707 742 l 707 538 b 613 485 707 489 656 458 l 206 742 l 206 -47 l 613 210 b 707 157 656 236 707 206 "},"L":{"ha":1161,"x_min":0,"x_max":0,"o":"m 453 901 b 514 840 486 901 514 875 l 514 -143 b 453 -204 514 -176 486 -204 l 200 -204 b 139 -143 165 -204 139 -178 l 139 840 b 200 901 139 874 165 901 m 961 901 b 1022 840 994 901 1022 875 l 1022 -143 b 961 -204 1022 -176 994 -204 l 707 -204 b 646 -143 674 -204 646 -176 l 646 840 b 707 901 646 874 674 901 m 449 836 l 204 836 l 204 -139 l 449 -139 m 956 836 l 713 836 l 713 -139 l 956 -139 "},"M":{"ha":1179,"x_min":0,"x_max":0,"o":"m 139 836 b 233 890 139 886 190 917 l 1013 399 b 1013 296 1050 375 1050 319 l 233 -196 b 139 -140 190 -222 139 -190 m 206 829 l 206 -135 l 971 347 "},"N":{"ha":1543,"x_min":0,"x_max":0,"o":"m 903 -57 b 871 -110 903 -81 892 -97 b 808 -108 850 -122 829 -121 l 167 296 b 167 399 129 319 129 375 l 808 803 b 871 804 829 815 850 817 b 903 751 892 792 903 775 l 903 546 l 1310 803 b 1404 751 1353 826 1404 800 l 1404 -57 b 1310 -108 1404 -106 1353 -132 l 903 149 m 836 157 b 868 211 836 181 847 199 b 931 210 889 224 910 222 l 1338 -47 l 1338 742 l 931 485 b 868 483 910 472 889 471 b 836 538 847 496 836 514 l 836 742 l 208 347 l 836 -47 "},"O":{"ha":1215,"x_min":0,"x_max":0,"o":"m 1076 -142 b 983 -196 1076 -190 1024 -222 l 204 294 l 204 -176 b 186 -194 204 -189 199 -194 l 157 -194 b 139 -176 144 -194 139 -189 l 139 871 b 157 889 139 883 144 889 l 186 889 b 204 871 199 889 204 883 l 204 400 l 983 890 b 1076 836 1024 917 1076 885 m 246 347 l 1011 -135 l 1011 829 "},"P":{"ha":1414,"x_min":0,"x_max":0,"o":"m 625 249 l 179 429 b 140 488 153 439 139 458 b 182 544 142 517 156 535 l 1194 897 b 1258 883 1218 906 1240 901 b 1274 818 1276 865 1282 843 l 921 -194 b 864 -236 911 -221 893 -235 b 806 -197 835 -237 815 -224 m 863 -162 l 1208 832 l 214 486 l 651 310 b 686 275 668 303 679 292 "},"Q":{"ha":1533,"x_min":0,"x_max":0,"o":"m 288 949 b 306 967 288 961 293 967 l 335 967 b 353 949 347 967 353 961 l 353 508 b 501 329 438 493 501 418 b 353 150 501 240 438 165 l 353 -253 b 335 -271 353 -265 347 -271 l 306 -271 b 288 -253 293 -271 288 -265 l 288 150 b 139 329 203 165 139 240 b 288 508 139 418 203 493 m 733 949 b 751 967 733 961 739 967 l 782 967 b 800 949 794 967 800 961 l 800 264 b 949 85 885 247 949 174 b 800 -94 949 -4 885 -79 l 800 -253 b 782 -271 800 -265 794 -271 l 751 -271 b 733 -253 739 -271 733 -265 l 733 -94 b 585 85 649 -79 585 -4 b 733 264 585 174 649 247 m 1179 949 b 1199 967 1179 961 1186 967 l 1228 967 b 1246 949 1240 967 1246 961 l 1246 817 b 1394 638 1331 801 1394 726 b 1246 458 1394 549 1331 474 l 1246 -253 b 1228 -271 1246 -265 1240 -271 l 1199 -271 b 1179 -253 1186 -271 1179 -265 l 1179 458 b 1031 638 1096 474 1031 549 b 1179 817 1031 726 1096 801 m 1131 719 b 1131 556 1086 675 1086 600 b 1296 557 1175 511 1250 511 b 1296 719 1340 601 1340 674 b 1131 719 1250 764 1175 764 m 239 411 b 239 247 193 367 193 292 b 403 247 283 203 358 203 b 403 411 447 292 447 367 b 239 411 358 456 283 456 m 686 167 b 686 3 640 122 640 47 b 849 3 731 -42 803 -42 b 849 167 893 47 893 122 b 686 167 803 211 731 211 "},"R":{"ha":1753,"x_min":0,"x_max":0,"o":"m 257 65 b 294 58 269 65 282 63 l 522 381 b 497 454 506 404 497 428 b 614 571 497 519 551 571 b 732 454 679 571 732 519 b 731 443 732 449 732 444 l 1047 317 b 1139 361 1069 346 1100 361 b 1174 357 1151 361 1163 360 l 1407 711 b 1379 788 1389 735 1379 760 b 1497 904 1379 853 1432 904 b 1614 788 1560 904 1614 853 b 1497 669 1614 722 1563 669 b 1463 675 1489 669 1478 671 l 1228 319 b 1256 244 1246 299 1256 274 b 1139 126 1256 179 1204 126 b 1022 244 1074 126 1022 179 l 1022 256 l 707 382 b 614 336 683 351 651 336 b 576 343 603 336 590 339 l 349 21 b 374 -51 365 0 374 -25 b 174 -135 379 -153 242 -211 b 257 65 97 -67 156 72 "},"S":{"ha":1438,"x_min":0,"x_max":0,"o":"m 576 929 b 638 868 610 929 638 901 l 638 493 b 576 432 638 458 610 432 l 201 432 b 139 493 167 432 139 458 l 139 868 b 201 929 139 901 167 929 m 1238 929 b 1299 868 1271 929 1299 901 l 1299 493 b 1238 432 1299 458 1271 432 l 863 432 b 801 493 829 432 801 458 l 801 868 b 863 929 801 901 829 929 m 571 863 l 206 863 l 206 497 l 571 497 m 1232 863 l 867 863 l 867 497 l 1232 497 m 576 267 b 638 206 610 267 638 240 l 638 -169 b 576 -231 638 -203 610 -231 l 201 -231 b 139 -169 167 -231 139 -203 l 139 206 b 201 267 139 240 167 267 m 1238 267 b 1299 206 1271 267 1299 240 l 1299 -169 b 1238 -231 1299 -203 1271 -231 l 863 -231 b 801 -169 829 -231 801 -203 l 801 206 b 863 267 801 240 829 267 m 571 201 l 206 201 l 206 -164 l 571 -164 m 1232 201 l 867 201 l 867 -164 l 1232 -164 "},"T":{"ha":1544,"x_min":0,"x_max":0,"o":"m 1279 364 l 1279 -190 b 1217 -251 1279 -224 1251 -251 l 972 -251 b 911 -190 939 -251 911 -224 l 911 206 l 663 206 l 663 -190 b 601 -251 663 -224 635 -251 l 356 -251 b 294 -190 322 -251 294 -224 l 294 364 l 208 274 b 183 272 200 265 192 265 l 161 293 b 160 318 151 300 150 308 l 743 929 b 831 929 767 953 807 953 l 1414 318 b 1413 293 1421 308 1421 300 l 1390 272 b 1365 274 1381 265 1372 265 m 361 433 l 361 -185 l 596 -185 l 596 210 b 657 271 596 244 624 271 l 917 271 b 978 210 950 271 978 244 l 978 -185 l 1213 -185 l 1213 433 l 786 879 "},"U":{"ha":1388,"x_min":0,"x_max":0,"o":"m 440 994 b 497 1050 440 1026 465 1050 l 1192 1050 b 1249 994 1224 1050 1249 1024 l 1249 -103 b 1231 -121 1249 -115 1243 -121 l 1200 -121 b 1182 -103 1188 -121 1182 -115 l 1182 985 l 506 985 l 506 771 b 488 753 506 758 500 753 l 458 753 b 440 771 446 753 440 758 m 661 818 b 643 836 649 818 643 824 l 643 867 b 661 885 643 879 649 885 l 767 885 b 785 867 779 885 785 879 l 785 836 b 767 818 785 824 779 818 m 922 818 b 903 836 910 818 903 824 l 903 867 b 922 885 903 879 910 885 l 1026 885 b 1044 867 1039 885 1044 879 l 1044 836 b 1026 818 1044 824 1039 818 m 1089 -294 b 1029 -354 1089 -328 1061 -354 l 778 -354 b 717 -294 744 -354 717 -328 l 717 -125 l 594 -125 l 594 -294 b 533 -354 594 -328 567 -354 l 199 -354 b 139 -294 167 -354 139 -328 l 139 639 b 196 696 139 671 164 696 l 1032 696 b 1089 639 1064 696 1089 671 m 1022 -289 l 1022 631 l 206 631 l 206 -289 l 528 -289 l 528 -118 b 588 -58 528 -85 556 -58 l 724 -58 b 783 -118 756 -58 783 -85 l 783 -289 m 328 443 b 310 461 315 443 310 449 l 310 492 b 328 510 310 504 315 510 l 432 510 b 451 492 444 510 451 504 l 451 461 b 432 443 451 449 444 443 m 560 443 b 542 461 547 443 542 449 l 542 492 b 560 510 542 504 547 510 l 665 510 b 683 492 678 510 683 504 l 683 461 b 665 443 683 449 678 443 m 794 443 b 776 461 782 443 776 449 l 776 492 b 794 510 776 504 782 510 l 900 510 b 918 492 913 510 918 504 l 918 461 b 900 443 918 449 913 443 m 328 249 b 310 267 315 249 310 254 l 310 297 b 328 315 310 310 315 315 l 432 315 b 451 297 444 315 451 310 l 451 267 b 432 249 451 254 444 249 m 560 249 b 542 267 547 249 542 254 l 542 297 b 560 315 542 310 547 315 l 665 315 b 683 297 678 315 683 310 l 683 267 b 665 249 683 254 678 249 m 794 249 b 776 267 782 249 776 254 l 776 297 b 794 315 776 310 782 315 l 900 315 b 918 297 913 315 918 310 l 918 267 b 900 249 918 254 913 249 m 328 58 b 310 78 315 58 310 65 l 310 107 b 328 125 310 119 315 125 l 432 125 b 451 107 444 125 451 119 l 451 78 b 432 58 451 65 444 58 m 560 58 b 542 78 547 58 542 65 l 542 107 b 560 125 542 119 547 125 l 665 125 b 683 107 678 125 683 119 l 683 78 b 665 58 683 65 678 58 m 794 58 b 776 78 782 58 776 65 l 776 107 b 794 125 776 119 782 125 l 900 125 b 918 107 913 125 918 119 l 918 78 b 900 58 918 65 913 58 "},"V":{"ha":2449,"x_min":0,"x_max":0,"o":"m 1719 803 b 1908 347 1846 676 1908 525 b 1719 -108 1908 169 1846 18 b 1264 -297 1593 -235 1442 -297 b 808 -108 1086 -297 935 -235 b 619 347 682 18 619 169 b 808 803 619 525 682 676 b 1264 990 935 928 1086 990 b 1719 803 1442 990 1593 928 m 2047 -193 b 2067 -211 2047 -206 2054 -211 l 2096 -211 b 2114 -193 2108 -211 2114 -206 l 2114 182 l 2249 182 b 2310 243 2282 182 2310 208 l 2310 696 b 2246 868 2310 765 2289 822 b 2047 938 2192 925 2140 938 l 2047 -193 m 856 756 b 686 347 743 643 686 507 b 856 -62 686 188 743 50 b 1264 -232 968 -175 1104 -232 b 1672 -62 1424 -232 1560 -175 b 1842 347 1785 50 1842 188 b 1672 756 1842 507 1785 643 b 1264 925 1560 868 1424 925 b 856 756 1104 925 968 868 m 206 585 b 342 454 206 503 274 454 b 476 585 408 454 476 503 l 476 883 b 494 901 476 896 482 901 l 524 901 b 542 883 536 901 542 896 l 542 585 b 374 392 542 481 475 407 l 374 -193 b 356 -211 374 -206 368 -211 l 326 -211 b 308 -193 314 -211 308 -206 l 308 392 b 139 585 207 407 139 481 l 139 883 b 157 901 139 896 144 901 l 188 901 b 206 883 200 901 206 896 l 206 585 m 257 603 b 275 585 257 590 263 585 l 299 585 b 317 603 311 585 317 590 l 317 883 b 299 901 317 896 311 901 l 275 901 b 257 883 263 901 257 896 m 365 603 b 383 585 365 590 371 585 l 407 585 b 425 603 419 585 425 590 l 425 883 b 407 901 425 896 419 901 l 383 901 b 365 883 371 901 365 896 m 2114 868 b 2197 824 2146 863 2174 847 b 2243 696 2228 790 2243 747 l 2243 247 l 2114 247 m 1264 771 b 1564 647 1381 771 1481 729 b 1688 347 1646 564 1688 464 b 1564 47 1688 229 1646 129 b 1264 -78 1481 -36 1381 -78 b 964 47 1146 -78 1046 -36 b 840 347 882 129 840 229 b 964 647 840 464 882 564 b 1264 771 1046 729 1146 771 m 1011 600 b 906 347 940 529 906 446 b 1011 94 906 249 940 164 b 1264 -11 1081 24 1165 -11 b 1518 94 1363 -11 1447 24 b 1622 347 1588 164 1622 249 b 1518 600 1622 446 1588 529 b 1264 704 1447 669 1363 704 b 1011 600 1165 704 1081 669 "},"W":{"ha":1268,"x_min":0,"x_max":0,"o":"m 164 732 b 303 674 214 781 303 747 b 221 593 303 629 265 593 b 139 674 176 593 139 629 b 164 732 139 697 147 717 m 481 642 b 461 660 468 642 461 647 l 461 689 b 481 707 461 701 468 707 l 1110 707 b 1129 689 1122 707 1129 701 l 1129 660 b 1110 642 1129 647 1122 642 m 164 406 b 303 347 214 454 303 421 b 221 267 303 303 265 267 b 139 347 176 267 139 303 b 164 406 139 371 147 390 m 481 315 b 461 333 468 315 461 321 l 461 363 b 481 381 461 375 468 381 l 1110 381 b 1129 363 1122 381 1129 375 l 1129 333 b 1110 315 1129 321 1122 315 m 164 79 b 303 22 214 128 303 93 b 221 -60 303 -24 265 -60 b 139 22 176 -60 139 -24 b 164 79 139 44 147 64 m 481 -11 b 461 7 468 -11 461 -6 l 461 36 b 481 54 461 49 468 54 l 1110 54 b 1129 36 1122 54 1129 49 l 1129 7 b 1110 -11 1129 -6 1122 -11 "},"X":{"ha":1513,"x_min":0,"x_max":0,"o":"m 575 726 b 644 893 575 792 599 847 b 810 961 690 939 744 961 l 1139 961 b 1306 893 1204 961 1260 939 b 1374 726 1351 847 1374 792 l 1374 -32 b 1306 -199 1374 -97 1351 -153 b 1139 -267 1260 -244 1204 -267 l 810 -267 b 644 -199 744 -267 690 -244 b 575 -32 599 -153 575 -97 l 575 136 b 593 154 575 149 581 154 l 622 154 b 640 136 635 154 640 149 l 640 -32 b 690 -151 640 -78 657 -118 b 810 -200 724 -183 764 -200 l 1139 -200 b 1258 -151 1185 -200 1225 -183 b 1307 -32 1290 -118 1307 -78 l 1307 726 b 1258 846 1307 772 1290 813 b 1139 894 1225 878 1185 894 l 810 894 b 690 846 764 894 724 878 b 640 726 657 813 640 772 l 640 560 b 622 542 640 547 635 542 l 593 542 b 575 560 581 542 575 547 l 575 726 m 411 544 b 411 571 421 554 421 563 l 390 592 b 365 592 381 601 372 601 l 154 381 b 154 315 133 363 133 333 l 365 104 b 390 104 372 94 381 94 l 411 125 b 411 151 421 135 421 143 l 247 315 l 956 315 b 974 333 968 315 974 321 l 974 363 b 956 381 974 375 968 381 l 247 381 "},"Y":{"ha":1390,"x_min":0,"x_max":0,"o":"m 453 724 b 522 890 453 789 476 844 b 688 958 568 936 622 958 l 1017 958 b 1183 890 1082 958 1138 936 b 1251 724 1229 844 1251 789 l 1251 -35 b 1183 -201 1251 -100 1229 -156 b 1017 -269 1138 -247 1082 -269 l 688 -269 b 522 -201 622 -269 568 -247 b 453 -35 476 -156 453 -100 l 453 133 b 471 151 453 146 458 151 l 500 151 b 518 133 513 151 518 146 l 518 -35 b 568 -154 518 -81 535 -121 b 688 -203 601 -186 642 -203 l 1017 -203 b 1136 -154 1063 -203 1103 -186 b 1185 -35 1168 -121 1185 -81 l 1185 724 b 1136 843 1185 769 1168 810 b 1017 892 1103 875 1063 892 l 688 892 b 568 843 642 892 601 875 b 518 724 535 810 518 769 l 518 557 b 500 539 518 544 513 539 l 471 539 b 453 557 458 539 453 544 l 453 724 m 701 542 b 701 568 693 551 693 560 l 722 589 b 749 589 732 599 740 599 l 958 378 b 958 313 976 360 976 331 l 749 101 b 722 101 740 93 732 93 l 701 122 b 701 149 693 132 693 140 l 865 313 l 157 313 b 139 331 144 313 139 318 l 139 360 b 157 378 139 372 144 378 l 865 378 "},"Z":{"ha":1619,"x_min":0,"x_max":0,"o":"m 867 -271 l 697 -100 b 697 -37 679 -83 679 -56 l 867 132 b 893 132 876 140 885 140 l 914 111 b 914 86 922 103 922 94 l 792 -36 l 1251 -36 b 1415 128 1342 -36 1415 38 l 1415 564 b 1251 728 1415 654 1342 728 l 369 728 b 206 564 279 728 206 654 l 206 128 b 369 -36 206 38 279 -36 l 451 -36 b 469 -54 464 -36 469 -42 l 469 -83 b 451 -101 469 -96 464 -101 l 369 -101 b 207 -35 306 -101 251 -79 b 139 128 161 11 139 65 l 139 564 b 207 726 139 626 161 681 b 369 794 251 772 306 794 l 1251 794 b 1414 726 1314 794 1368 772 b 1481 564 1458 681 1481 626 l 1481 128 b 1414 -35 1481 65 1458 11 b 1251 -101 1368 -79 1314 -101 l 792 -101 l 914 -224 b 914 -250 924 -232 924 -240 l 893 -271 b 867 -271 885 -279 876 -279 "},"a":{"ha":1603,"x_min":0,"x_max":0,"o":"m 544 764 l 544 781 b 732 972 544 899 615 972 l 871 972 b 1058 781 989 972 1058 899 l 1058 764 l 1219 764 b 1393 693 1288 764 1344 740 b 1464 519 1440 644 1464 588 l 1464 -35 b 1393 -208 1464 -103 1440 -160 b 1219 -281 1344 -257 1288 -281 l 385 -281 b 211 -208 317 -281 260 -257 b 139 -35 163 -160 139 -103 l 139 519 b 211 693 139 588 163 644 b 385 764 260 740 317 764 m 993 764 l 993 781 b 871 906 993 864 953 906 l 732 906 b 611 781 651 906 611 864 l 611 764 m 385 699 b 258 646 336 699 293 681 b 206 519 224 611 206 568 l 206 390 l 664 390 l 664 461 b 726 524 664 496 692 524 l 876 524 b 940 461 911 524 940 496 l 940 390 l 1399 390 l 1399 519 b 1346 646 1399 568 1381 610 b 1219 699 1310 681 1268 699 m 881 461 b 876 464 881 463 879 464 l 726 464 b 724 461 725 464 724 463 l 724 203 b 726 199 724 200 725 199 l 876 199 b 881 203 879 199 881 200 m 664 324 l 206 324 l 206 -35 b 258 -161 206 -83 224 -126 b 385 -214 293 -196 336 -214 l 1219 -214 b 1346 -161 1268 -214 1311 -196 b 1399 -35 1381 -126 1399 -83 l 1399 324 l 940 324 l 940 203 b 876 139 940 168 911 139 l 726 139 b 664 203 692 139 664 168 "},"b":{"ha":1510,"x_min":0,"x_max":0,"o":"m 1238 964 b 1260 951 1249 968 1256 964 l 1268 924 b 1257 900 1272 911 1268 904 l 772 750 b 736 750 761 746 749 746 l 253 900 b 240 924 242 904 238 911 l 250 951 b 272 964 254 964 261 968 l 754 814 m 754 676 l 1292 843 b 1371 785 1331 856 1371 825 l 1371 -43 b 1328 -101 1371 -74 1357 -93 l 772 -275 b 736 -275 761 -279 749 -279 l 182 -101 b 139 -43 153 -94 139 -75 l 139 785 b 218 843 139 825 179 856 m 722 -201 l 722 617 l 206 778 l 206 -40 m 788 617 l 788 -201 l 1304 -40 l 1304 778 "},"c":{"ha":1510,"x_min":0,"x_max":0,"o":"m 754 767 l 1290 933 b 1371 875 1331 946 1371 915 l 1371 -12 b 1328 -71 1371 -43 1357 -62 l 772 -244 b 736 -244 760 -249 749 -249 l 182 -71 b 139 -12 153 -64 139 -44 l 139 875 b 218 933 139 915 179 946 m 721 -171 l 721 707 l 204 868 l 204 -10 m 788 707 l 788 -171 l 1304 -10 l 1304 868 m 303 539 b 290 561 290 543 289 546 l 292 590 b 314 604 293 603 300 608 l 610 510 b 628 486 622 506 628 499 l 625 457 b 600 444 625 444 611 439 m 1203 539 b 1214 561 1211 542 1215 549 l 1213 590 b 1192 604 1211 604 1204 608 l 894 510 b 878 486 882 506 876 499 l 879 457 b 904 444 879 444 893 439 m 303 329 b 290 353 293 332 289 340 l 292 382 b 314 396 293 394 300 399 l 610 301 b 628 276 622 297 628 289 l 625 249 b 600 236 625 236 611 231 m 1203 329 b 1214 353 1211 332 1215 340 l 1213 382 b 1192 396 1211 394 1204 399 l 894 301 b 878 276 882 297 876 289 l 879 249 b 904 236 879 236 893 231 m 303 111 b 290 133 293 114 289 121 l 292 163 b 314 176 293 175 300 181 l 610 83 b 628 58 622 79 628 71 l 625 31 b 600 17 625 18 617 13 m 1203 111 b 1214 133 1211 114 1215 121 l 1213 163 b 1192 176 1211 176 1204 181 l 894 83 b 878 58 882 79 876 71 l 879 31 b 904 17 879 18 888 13 "},"d":{"ha":1250,"x_min":0,"x_max":0,"o":"m 417 769 l 417 913 b 476 972 417 946 444 972 l 774 972 b 833 913 807 972 833 946 l 833 769 l 893 769 b 1047 706 953 769 1004 749 b 1111 550 1090 663 1111 610 l 1111 -94 b 1047 -249 1111 -154 1090 -206 b 893 -312 1004 -292 953 -312 l 358 -312 b 204 -249 299 -312 247 -292 b 139 -94 161 -206 139 -154 l 139 550 b 204 706 139 610 161 663 b 358 769 247 749 299 769 m 483 769 l 768 769 l 768 906 l 483 906 m 833 703 l 833 565 b 815 547 833 553 828 547 l 786 547 b 768 565 774 547 768 553 l 768 703 l 483 703 l 483 565 b 465 547 483 553 478 547 l 435 547 b 417 565 422 547 417 553 l 417 703 l 358 703 b 206 550 274 703 206 635 l 206 -94 b 358 -246 206 -178 274 -246 l 893 -246 b 1046 -94 976 -246 1046 -178 l 1046 550 b 893 703 1046 635 976 703 "},"e":{"ha":1618,"x_min":0,"x_max":0,"o":"m 764 653 b 1479 -158 1249 608 1469 336 b 1364 -190 1479 -222 1396 -242 b 764 157 1233 33 1033 149 l 764 -60 b 729 -115 764 -86 753 -104 b 664 -106 706 -126 683 -124 l 158 351 b 158 442 132 375 132 418 l 664 897 b 729 908 683 915 706 918 b 764 853 753 897 764 879 m 697 839 l 207 397 l 697 -47 l 697 224 b 1414 -144 1025 224 1251 121 b 1233 393 1407 99 1347 278 b 697 592 1119 508 940 574 "},"f":{"ha":1619,"x_min":0,"x_max":0,"o":"m 854 854 b 890 910 854 881 867 899 b 954 899 914 919 935 917 l 1460 443 b 1460 353 1488 419 1488 376 l 954 -104 b 890 -114 936 -122 914 -125 b 854 -58 867 -103 854 -85 l 854 158 b 254 -189 586 150 386 35 b 139 -157 222 -240 139 -221 b 854 654 149 338 369 610 m 921 593 b 386 394 678 575 499 510 b 206 -143 272 279 213 100 b 921 225 367 122 593 225 l 921 -46 l 1413 399 l 921 840 "},"g":{"ha":1600,"x_min":0,"x_max":0,"o":"m 469 18 b 451 0 469 6 464 0 b 139 253 253 1 139 64 b 206 431 139 321 161 379 b 372 506 250 481 306 506 l 385 506 b 475 757 386 603 415 686 b 707 889 535 826 611 871 b 971 853 801 907 889 896 b 1146 656 1051 810 1110 744 b 1372 563 1236 654 1313 622 b 1461 335 1432 501 1461 425 b 1388 108 1461 247 1436 171 b 1185 0 1338 44 1269 8 b 1164 17 1172 -1 1165 4 l 1161 46 b 1178 65 1160 58 1165 65 b 1338 153 1246 72 1300 101 b 1394 335 1375 204 1394 264 b 1324 517 1394 408 1371 468 b 1142 590 1275 564 1215 589 b 1086 628 1115 590 1097 603 b 940 794 1056 703 1007 758 b 719 824 872 829 799 839 b 450 500 558 792 451 665 b 385 439 450 465 419 435 b 257 388 333 443 292 425 b 206 253 222 350 206 304 b 451 65 206 104 290 67 b 469 47 464 65 469 60 m 1047 -26 l 843 -229 b 790 -229 831 -244 803 -244 l 586 -26 b 586 0 576 -18 576 -10 l 603 15 b 628 15 611 24 619 24 l 783 -139 l 783 324 b 801 342 783 336 789 342 l 832 342 b 850 324 844 342 850 336 l 850 -139 l 1006 15 b 1031 15 1014 24 1022 24 l 1047 0 b 1047 -26 1057 -10 1057 -18 "},"h":{"ha":1599,"x_min":0,"x_max":0,"o":"m 469 18 b 450 0 469 6 463 0 b 139 253 254 1 139 64 b 206 431 139 321 161 379 b 372 506 250 481 306 506 l 385 506 b 475 757 386 603 415 686 b 707 889 535 826 611 871 b 969 853 800 907 888 896 b 1146 656 1051 810 1110 744 b 1371 563 1236 654 1311 622 b 1460 335 1431 501 1460 425 b 1386 108 1460 247 1435 171 b 1185 0 1338 44 1269 8 b 1164 17 1172 -1 1165 4 l 1161 46 b 1178 65 1160 58 1165 65 b 1338 153 1246 72 1300 101 b 1394 335 1375 204 1394 264 b 1324 517 1394 408 1371 468 b 1142 590 1275 564 1215 589 b 1086 628 1115 590 1097 603 b 940 794 1056 703 1007 758 b 719 824 872 829 799 839 b 525 713 638 808 574 772 b 450 500 476 653 451 582 b 385 439 450 465 419 435 b 257 388 333 443 292 425 b 206 253 222 350 206 304 b 450 65 206 104 289 67 b 469 47 463 65 469 60 m 1047 174 l 843 376 b 789 376 825 394 807 394 l 586 174 b 586 147 576 165 576 157 l 603 132 b 628 132 611 124 619 124 l 783 286 l 783 -174 b 801 -192 783 -186 789 -192 l 831 -192 b 849 -174 843 -192 849 -186 l 850 286 l 1004 132 b 1031 132 1013 124 1021 124 l 1047 147 b 1047 174 1057 157 1057 165 "},"i":{"ha":1513,"x_min":0,"x_max":0,"o":"m 906 811 b 992 776 929 804 958 793 l 1079 833 b 1151 829 1104 849 1128 847 b 1246 735 1186 801 1218 769 b 1249 664 1264 711 1265 688 l 1192 575 b 1228 490 1204 554 1215 525 l 1331 468 b 1378 414 1360 461 1375 443 b 1378 282 1383 369 1383 325 b 1331 228 1376 256 1357 233 l 1228 206 b 1192 121 1217 174 1204 144 l 1249 32 b 1246 -39 1265 8 1264 -15 b 1151 -133 1218 -74 1186 -106 b 1079 -136 1128 -151 1104 -153 l 992 -79 b 906 -115 967 -93 938 -106 l 885 -218 b 831 -265 879 -244 857 -264 b 699 -265 786 -271 742 -271 b 644 -218 669 -262 651 -247 l 622 -115 b 538 -79 588 -103 558 -92 l 449 -136 b 378 -133 425 -153 401 -151 b 283 -39 343 -106 311 -74 b 279 32 265 -17 264 7 l 336 121 b 301 206 319 153 308 182 l 199 228 b 151 282 172 233 156 256 b 151 414 146 325 146 369 b 199 468 154 444 169 463 l 301 490 b 336 575 308 518 321 546 l 279 664 b 283 735 264 689 265 713 b 378 829 311 769 343 801 b 449 833 400 847 424 849 l 538 776 b 622 811 567 792 594 804 l 644 914 b 699 961 650 943 668 958 b 831 961 742 967 786 967 b 885 914 857 957 879 940 m 885 749 b 842 794 861 756 847 771 l 821 896 b 708 896 783 900 746 900 l 686 794 b 644 749 682 771 668 756 b 567 717 618 740 592 729 b 504 718 546 706 525 706 l 417 775 b 338 696 388 751 361 725 l 393 608 b 396 546 407 589 408 568 b 364 468 383 521 372 494 b 318 426 357 444 342 431 l 217 404 b 217 292 213 367 213 329 l 318 271 b 396 150 364 260 368 207 b 393 88 408 129 407 108 l 338 0 b 417 -79 361 -29 388 -56 l 504 -22 b 567 -21 525 -10 546 -10 b 644 -53 592 -33 618 -44 b 686 -99 668 -60 682 -75 l 708 -200 b 821 -200 746 -204 783 -204 l 842 -99 b 963 -21 853 -53 906 -49 b 1025 -22 983 -10 1004 -10 l 1113 -79 b 1192 0 1142 -56 1168 -29 l 1135 88 b 1133 150 1122 108 1122 129 b 1165 228 1149 179 1158 204 b 1211 271 1172 251 1188 265 l 1313 292 b 1313 404 1317 329 1317 367 l 1211 426 b 1165 468 1188 431 1172 444 b 1133 546 1157 494 1146 521 b 1135 608 1122 567 1122 588 l 1192 696 b 1113 775 1168 725 1142 751 l 1025 718 b 963 717 1004 706 983 706 b 885 749 936 729 910 740 m 764 592 b 938 521 832 592 889 568 b 1008 349 985 472 1008 415 b 938 176 1008 281 985 224 b 764 104 889 128 832 104 b 593 176 697 104 640 128 b 521 349 544 224 521 281 b 593 521 521 415 544 472 b 764 592 640 568 697 592 m 764 525 b 640 474 715 525 675 508 b 588 349 606 439 588 397 b 639 224 588 300 604 258 b 764 171 674 189 715 171 b 890 224 813 171 856 189 b 942 349 925 258 942 300 b 890 474 942 397 925 439 b 764 525 856 508 813 525 "},"j":{"ha":1458,"x_min":0,"x_max":0,"o":"m 1264 933 b 1313 883 1292 926 1308 910 b 1300 615 1326 801 1322 713 b 1185 388 1276 517 1239 442 b 796 203 1100 303 971 242 l 804 49 b 786 1 806 31 800 15 l 650 -135 l 643 -139 b 549 -112 625 -149 574 -172 l 475 94 l 268 169 b 246 269 225 185 214 238 l 382 407 b 429 424 394 419 411 425 l 583 415 b 768 804 624 592 685 722 b 996 924 824 861 900 900 b 1264 933 1092 946 1182 949 m 1249 869 b 1014 860 1178 882 1099 879 b 815 758 929 840 863 807 b 647 397 738 681 682 560 b 583 350 640 368 615 349 l 428 358 l 297 229 l 499 156 b 536 119 517 149 529 138 l 608 -82 l 739 47 l 729 204 b 778 267 728 233 749 260 b 1138 435 943 303 1064 358 b 1236 633 1183 481 1217 547 b 1249 869 1256 719 1260 799 m 1106 544 b 921 544 1054 493 971 493 b 921 729 869 594 869 678 b 1106 729 971 779 1054 779 b 1106 544 1156 678 1156 594 m 1013 708 b 942 636 974 708 942 676 b 1013 565 942 597 974 565 b 1085 636 1053 565 1085 597 b 1013 708 1085 676 1053 708 m 475 -122 b 204 -237 401 -193 311 -231 b 140 -172 167 -242 139 -210 b 260 101 146 -74 192 33 b 285 101 268 110 276 110 l 307 81 b 306 56 314 74 314 65 b 206 -171 247 -4 214 -81 b 429 -75 296 -164 369 -132 b 456 -75 439 -65 447 -65 l 475 -96 b 475 -122 483 -104 483 -112 "},"k":{"ha":1182,"x_min":0,"x_max":0,"o":"m 558 882 l 431 754 b 404 754 421 746 413 746 l 383 775 b 383 801 374 785 374 793 l 561 978 b 622 978 578 994 606 994 l 799 801 b 799 775 807 793 807 785 l 778 754 b 753 754 769 746 761 746 l 625 882 l 625 214 b 607 196 625 201 619 196 l 576 196 b 558 214 564 196 558 201 m 433 579 b 415 561 433 567 428 561 l 369 561 b 206 397 279 561 206 488 l 206 -47 b 369 -211 206 -137 279 -211 l 814 -211 b 929 -164 858 -211 897 -196 b 976 -47 961 -132 976 -93 l 976 397 b 929 514 976 443 961 482 b 814 561 897 546 858 561 l 767 561 b 749 579 754 561 749 567 l 749 608 b 767 626 749 621 754 626 l 814 626 b 976 560 876 626 931 604 b 1043 397 1021 514 1043 460 l 1043 -47 b 976 -211 1043 -111 1021 -165 b 814 -278 931 -256 876 -278 l 369 -278 b 207 -211 306 -278 251 -256 b 139 -47 161 -165 139 -111 l 139 397 b 207 560 139 460 161 514 b 369 626 251 604 306 626 l 415 626 b 433 608 428 626 433 621 "},"l":{"ha":1182,"x_min":0,"x_max":0,"o":"m 558 913 b 576 931 558 925 564 931 l 606 931 b 624 913 618 931 624 925 l 624 244 l 751 372 b 778 372 760 382 768 382 l 799 351 b 799 325 807 343 807 335 l 621 147 b 561 147 604 131 578 131 l 383 325 b 383 351 374 335 374 343 l 404 372 b 431 372 413 382 421 382 l 558 244 m 433 579 b 414 561 433 567 426 561 l 368 561 b 204 397 278 561 204 488 l 204 -47 b 368 -211 204 -137 278 -211 l 813 -211 b 976 -47 903 -211 976 -137 l 976 397 b 813 561 976 488 903 561 l 767 561 b 749 579 754 561 749 567 l 749 608 b 767 626 749 621 754 626 l 813 626 b 975 560 875 626 929 604 b 1043 397 1021 514 1043 460 l 1043 -47 b 975 -211 1043 -111 1021 -165 b 813 -278 929 -256 875 -278 l 368 -278 b 207 -211 306 -278 251 -256 b 139 -47 161 -165 139 -111 l 139 397 b 207 560 139 460 161 514 b 368 626 251 604 306 626 l 414 626 b 433 608 426 626 433 621 "},"m":{"ha":1479,"x_min":0,"x_max":0,"o":"m 1326 706 b 1326 644 1347 685 1347 665 l 1131 450 b 1106 449 1121 440 1113 440 l 1085 469 b 1085 496 1076 479 1076 488 l 1235 643 b 517 129 847 639 613 490 b 494 115 514 117 507 111 l 465 124 b 453 146 454 125 450 133 b 1233 708 558 536 817 704 l 1090 849 b 1090 874 1082 857 1082 865 l 1111 894 b 1138 894 1121 904 1129 904 m 628 699 b 610 681 628 686 622 681 l 368 681 b 253 633 325 681 286 665 b 206 517 221 600 206 561 l 206 50 b 253 -65 206 7 221 -32 b 368 -112 286 -97 325 -112 l 1074 -112 b 1190 -65 1118 -112 1157 -97 b 1238 50 1222 -32 1238 7 l 1238 346 b 1256 364 1238 358 1243 364 l 1286 364 b 1304 346 1299 364 1304 358 l 1304 50 b 1236 -112 1304 -12 1282 -67 b 1074 -179 1190 -157 1136 -179 l 368 -179 b 207 -112 306 -179 251 -157 b 139 50 161 -67 139 -12 l 139 517 b 207 679 139 579 161 633 b 368 747 250 725 304 747 l 610 747 b 628 729 622 747 628 742 "},"n":{"ha":1510,"x_min":0,"x_max":0,"o":"m 910 728 b 960 754 922 746 939 754 l 1258 754 l 1139 874 b 1139 899 1132 882 1132 890 l 1161 919 b 1186 919 1169 928 1178 928 l 1356 750 b 1356 690 1372 735 1372 707 l 1186 522 b 1161 521 1176 513 1168 513 l 1139 543 b 1139 568 1132 551 1132 560 l 1258 688 l 961 688 l 457 -31 b 407 -57 444 -49 428 -57 l 157 -57 b 139 -39 144 -57 139 -51 l 139 -10 b 157 8 139 3 144 8 l 404 8 m 407 754 b 457 728 428 754 444 746 l 624 490 b 619 465 631 481 629 472 l 596 447 b 569 451 586 440 576 442 l 404 688 l 157 688 b 139 706 144 688 139 693 l 139 736 b 157 754 139 749 144 754 l 407 754 m 1261 8 l 1142 128 b 1142 154 1132 138 1132 146 l 1164 175 b 1189 175 1172 183 1181 183 l 1358 6 b 1358 -54 1375 -11 1375 -37 l 1189 -224 b 1164 -224 1181 -232 1172 -232 l 1142 -203 b 1142 -176 1132 -193 1132 -185 l 1261 -57 l 960 -57 b 910 -31 939 -57 922 -49 l 747 200 b 751 225 740 210 742 218 l 775 243 b 800 239 785 250 793 249 l 961 8 "},"o":{"ha":1368,"x_min":0,"x_max":0,"o":"m 1176 860 b 1229 731 1211 824 1229 781 b 1176 601 1229 679 1211 636 b 1047 547 1142 565 1099 547 b 899 624 985 547 936 572 l 492 414 b 504 349 500 394 504 372 b 496 289 504 328 501 308 l 904 79 b 1047 149 940 125 988 149 b 1176 96 1099 149 1142 131 b 1229 -35 1211 60 1229 17 b 1176 -164 1229 -85 1211 -128 b 1047 -217 1142 -199 1099 -217 b 918 -164 996 -217 953 -199 b 864 -35 882 -128 864 -85 b 874 21 864 -17 867 1 l 463 232 b 322 165 425 188 379 165 b 193 219 271 165 228 183 b 139 349 157 254 139 297 b 193 478 139 399 157 442 b 322 531 228 513 271 531 b 457 471 375 531 419 511 l 871 683 b 864 731 867 700 864 715 b 918 860 864 781 882 824 b 1047 913 953 894 996 913 b 1176 860 1099 913 1142 894 m 965 813 b 931 731 942 789 931 763 b 1047 614 931 665 982 614 b 1164 731 1113 614 1164 665 b 965 813 1168 829 1032 889 m 240 431 b 322 232 165 365 222 225 b 439 349 388 232 439 283 b 240 431 446 447 306 504 m 965 49 b 965 -118 919 3 919 -72 b 1129 -118 1011 -162 1083 -162 b 1131 49 1175 -72 1175 3 b 965 49 1085 93 1010 93 "},"p":{"ha":1510,"x_min":0,"x_max":0,"o":"m 756 964 b 1190 783 925 964 1069 904 b 1371 347 1311 663 1371 518 b 1190 -89 1371 176 1311 32 b 756 -268 1069 -208 925 -268 b 139 347 422 -276 132 15 b 756 964 131 679 424 972 m 367 736 b 206 347 260 629 206 499 b 367 -42 206 196 260 67 b 756 -201 474 -149 604 -201 b 1144 -42 907 -201 1038 -149 b 1304 347 1251 67 1304 196 b 1144 736 1304 499 1251 629 b 756 897 1038 843 907 897 b 367 736 604 897 474 843 m 522 533 b 533 507 518 521 521 511 l 563 499 b 586 511 574 494 582 499 b 768 631 618 590 679 631 b 933 490 872 631 933 572 b 894 379 933 442 924 410 b 861 347 879 364 868 353 b 817 315 853 340 838 331 b 710 140 746 271 710 229 b 728 122 710 128 715 122 l 750 122 b 769 140 763 122 769 128 b 857 269 775 210 807 235 b 868 276 860 271 864 274 b 958 350 907 303 928 317 b 1003 493 989 383 1003 432 b 771 694 1003 608 914 694 b 522 533 647 694 564 640 m 738 49 b 697 10 706 49 697 39 l 697 4 b 738 -35 697 -25 706 -35 l 743 -35 b 781 4 772 -35 781 -25 l 781 10 b 743 49 781 39 772 49 "},"q":{"ha":1243,"x_min":0,"x_max":0,"o":"m 139 -226 l 139 861 b 189 922 139 890 160 917 b 481 901 294 939 400 929 b 607 863 521 888 563 875 b 868 825 696 838 768 814 b 1018 868 917 831 967 844 b 1104 813 1058 886 1104 857 l 1104 318 b 1068 263 1104 292 1092 272 b 546 258 850 150 685 206 b 204 301 450 293 325 322 l 204 -226 b 186 -244 204 -239 199 -244 l 157 -244 b 139 -226 144 -244 139 -239 m 204 368 b 547 326 325 386 451 360 b 693 279 594 308 643 293 b 1039 321 793 251 913 258 l 1039 804 b 685 771 907 744 776 742 b 535 817 639 785 589 800 b 381 858 481 833 429 847 b 204 857 332 868 272 868 "},"r":{"ha":1364,"x_min":0,"x_max":0,"o":"m 1051 49 b 1033 67 1039 49 1033 54 l 1033 96 b 1051 114 1033 108 1039 114 l 1160 114 l 1160 821 l 453 821 l 453 714 b 435 696 453 701 447 696 l 404 696 b 386 714 392 696 386 701 l 386 826 b 447 888 386 860 414 888 l 1164 888 b 1225 826 1197 888 1225 860 l 1225 110 b 1164 49 1225 76 1199 49 l 1051 49 m 917 640 b 978 579 950 640 978 614 l 978 -137 b 917 -199 978 -171 950 -199 l 200 -199 b 139 -137 165 -199 139 -171 l 139 579 b 200 640 139 614 165 640 m 911 575 l 204 575 l 204 -132 l 911 -132 "},"s":{"ha":1556,"x_min":0,"x_max":0,"o":"m 1357 935 b 1417 875 1389 935 1417 907 l 1417 -60 b 1357 -119 1417 -92 1389 -119 l 961 -119 b 818 -222 893 -119 844 -154 b 778 -250 811 -240 799 -250 b 736 -222 757 -250 743 -240 b 593 -119 710 -154 661 -119 l 199 -119 b 139 -60 165 -119 139 -92 l 139 875 b 199 935 139 907 165 935 l 596 935 b 778 840 667 935 738 897 b 958 935 818 897 888 935 m 744 732 b 596 868 744 810 675 868 l 204 868 l 204 -53 l 593 -53 b 744 -114 653 -53 704 -74 m 811 -114 b 961 -53 851 -74 901 -53 l 1350 -53 l 1350 868 l 958 868 b 811 732 881 868 811 810 "},"t":{"ha":1429,"x_min":0,"x_max":0,"o":"m 1288 789 b 1261 686 1297 747 1288 713 l 729 154 b 704 140 722 147 714 143 l 482 82 b 421 143 447 72 411 106 l 478 367 b 493 392 481 376 486 385 l 1024 922 b 1128 950 1050 949 1085 958 b 1288 789 1204 938 1272 865 m 1224 778 b 1115 885 1214 826 1164 878 b 1071 875 1094 889 1081 885 l 542 347 l 492 153 l 685 203 l 1214 732 b 1224 778 1224 743 1226 758 m 1143 -194 b 1082 -256 1143 -228 1115 -256 l 200 -256 b 139 -194 167 -256 139 -228 l 139 758 b 200 819 139 792 167 819 l 693 819 b 711 801 706 819 711 814 l 711 771 b 693 753 711 758 706 753 l 206 753 l 206 -190 l 1076 -190 l 1076 335 b 1094 353 1076 347 1082 353 l 1125 353 b 1143 335 1138 353 1143 347 "},"u":{"ha":1506,"x_min":0,"x_max":0,"o":"m 1372 742 b 1336 606 1382 685 1371 639 l 568 -164 b 540 -179 558 -171 550 -176 l 218 -264 b 149 -194 175 -274 138 -235 l 231 129 b 247 158 233 140 239 150 l 1015 926 b 1151 963 1050 961 1094 972 b 1294 885 1203 953 1251 928 b 1372 742 1338 842 1363 793 m 996 814 b 1224 586 1096 771 1181 686 l 1290 651 b 1307 729 1308 669 1314 696 b 1247 838 1300 767 1279 803 b 1139 897 1214 871 1178 890 b 1063 879 1104 904 1079 897 m 326 143 b 554 -85 426 103 511 17 l 1172 535 b 944 763 1140 636 1049 731 m 497 -122 b 288 88 464 -29 381 54 l 217 -196 "},"v":{"ha":1572,"x_min":0,"x_max":0,"o":"m 140 439 b 311 824 147 589 204 717 b 696 994 418 929 546 986 b 760 933 731 996 760 968 l 760 435 b 699 374 760 401 733 374 l 201 374 b 140 439 167 374 139 404 m 694 440 l 694 928 b 358 776 563 919 451 869 b 207 440 265 683 215 572 m 326 253 b 493 -93 336 117 392 1 b 847 -233 593 -186 711 -233 b 1217 -81 990 -233 1114 -182 b 1369 289 1318 22 1369 146 b 1228 646 1369 426 1322 544 b 878 811 1132 747 1015 801 b 861 829 865 811 860 817 l 863 860 b 882 876 863 872 869 878 b 1275 692 1036 867 1168 806 b 1435 289 1382 578 1435 443 b 1263 -128 1435 126 1378 -12 b 847 -299 1147 -242 1010 -299 b 447 -140 693 -299 560 -246 b 260 247 335 -35 272 94 b 276 267 258 260 264 267 l 307 269 b 326 253 319 269 325 264 "},"w":{"ha":1657,"x_min":0,"x_max":0,"o":"m 1106 536 l 1429 707 b 1518 651 1469 728 1518 697 l 1518 38 b 1429 -17 1518 -7 1469 -39 l 1106 153 l 1106 63 b 1038 -100 1106 0 1083 -54 b 875 -167 992 -144 938 -167 l 368 -167 b 207 -100 306 -167 251 -144 b 139 63 161 -54 139 0 l 139 625 b 207 789 139 689 161 743 b 368 856 251 833 306 856 l 875 856 b 1038 789 938 856 992 833 b 1106 625 1083 743 1106 689 m 1039 625 b 875 789 1039 715 965 789 l 368 789 b 204 625 278 789 204 715 l 204 63 b 368 -101 204 -28 278 -101 l 875 -101 b 1039 63 965 -101 1039 -28 l 1039 160 b 1129 214 1039 206 1089 236 l 1451 46 l 1451 644 l 1133 476 b 1039 528 1090 453 1039 478 "},"x":{"ha":1139,"x_min":0,"x_max":0,"o":"m 325 721 b 814 721 325 1043 814 1043 l 814 363 b 325 363 814 40 325 40 m 392 363 b 447 232 392 307 410 264 b 571 185 485 200 525 185 b 693 232 615 185 656 200 b 749 363 731 264 749 307 l 749 721 b 693 851 749 776 731 819 b 571 899 656 883 615 899 b 447 851 525 899 485 883 b 392 721 410 819 392 776 m 603 -193 l 793 -193 b 811 -211 806 -193 811 -199 l 811 -240 b 793 -258 811 -253 806 -258 l 346 -258 b 328 -240 333 -258 328 -253 l 328 -211 b 346 -193 328 -199 333 -193 l 536 -193 l 536 -57 b 256 64 426 -50 332 -10 b 139 363 178 138 139 236 l 139 524 b 157 542 139 536 144 542 l 188 542 b 206 524 200 542 206 536 l 206 363 b 935 363 206 -111 935 -111 l 935 524 b 953 542 935 536 940 542 l 982 542 b 1000 524 994 542 1000 536 l 1000 363 b 885 64 1000 236 961 138 b 603 -57 807 -10 713 -50 "},"y":{"ha":1564,"x_min":0,"x_max":0,"o":"m 238 343 b 157 585 172 414 146 494 b 282 810 167 675 208 750 b 744 767 436 933 611 915 l 797 708 l 850 767 b 1313 810 983 915 1158 933 b 1439 585 1386 750 1428 675 b 1357 343 1449 494 1422 414 l 842 -196 b 753 -196 815 -222 776 -222 m 696 722 b 324 760 586 844 450 860 b 222 581 265 711 232 651 b 288 386 213 508 235 443 l 797 -146 l 1307 386 b 1372 579 1358 443 1381 507 b 1271 760 1363 651 1329 711 b 899 722 1144 860 1008 844 l 840 658 b 753 658 818 632 776 632 "},"z":{"ha":1550,"x_min":0,"x_max":0,"o":"m 950 821 l 950 936 b 968 954 950 949 956 954 l 999 954 b 1017 936 1011 954 1017 949 l 1017 821 l 1181 821 b 1343 754 1243 821 1297 799 b 1411 590 1389 708 1411 654 l 1411 -10 b 1343 -172 1411 -72 1389 -126 b 1181 -239 1297 -217 1243 -239 l 369 -239 b 207 -172 306 -239 251 -217 b 139 -10 161 -126 139 -72 l 139 590 b 207 754 139 654 161 708 b 369 821 251 799 306 821 l 533 821 l 533 936 b 551 954 533 949 539 954 l 582 954 b 600 936 594 954 600 949 l 600 821 m 533 754 l 369 754 b 206 590 279 754 206 681 l 206 -10 b 369 -174 206 -100 279 -174 l 1181 -174 b 1344 -10 1271 -174 1344 -100 l 1344 590 b 1181 754 1344 681 1271 754 l 1017 754 l 1017 682 b 999 664 1017 669 1011 664 l 968 664 b 950 682 956 664 950 669 l 950 754 l 600 754 l 600 682 b 582 664 600 669 594 664 l 551 664 b 533 682 539 664 533 669 m 392 485 b 510 485 424 517 476 517 b 510 367 542 451 542 399 b 392 367 476 333 424 333 b 392 485 358 399 358 451 m 717 485 b 835 485 749 517 801 517 b 835 367 867 451 867 399 b 717 367 801 333 749 333 b 717 485 683 399 683 451 m 1042 485 b 1160 485 1074 517 1126 517 b 1160 367 1192 451 1192 399 b 1042 367 1126 333 1074 333 b 1042 485 1008 399 1008 451 m 450 214 b 510 72 522 218 563 119 b 367 131 461 18 363 58 b 450 214 367 179 401 214 m 717 190 b 835 190 749 222 801 222 b 835 72 867 157 867 104 b 717 72 801 39 749 39 b 717 190 683 104 683 157 m 1042 190 b 1160 190 1074 222 1126 222 b 1160 72 1192 157 1192 104 b 1042 72 1126 39 1074 39 b 1042 190 1008 104 1008 157 "}}}
